<svg width="16" height="12" viewBox="0 0 16 12" xmlns="http://www.w3.org/2000/svg"><path fill-rule="evenodd" clip-rule="evenodd" d="M0 6s3.582 6 8 6 8-6 8-6-3.582-6-8-6-8 6-8 6zm1.192 0a17.95 17.95 0 001.87 2.306C4.473 9.766 6.222 11 8 11s3.528-1.234 4.937-2.694A17.955 17.955 0 0014.807 6a17.955 17.955 0 00-1.87-2.306C11.528 2.234 9.78 1 8 1 6.221 1 4.472 2.234 3.063 3.694A17.95 17.95 0 001.193 6z"/><path fill-rule="evenodd" clip-rule="evenodd" d="M8 8a2 2 0 100-4 2 2 0 000 4zm0 1a3 3 0 100-6 3 3 0 000 6z"/></svg>