<svg width="20" height="20" viewBox="0 0 20 20" xmlns="http://www.w3.org/2000/svg">
<path d="M1.4318 4.74805C1.43186 4.74815 1.43193 4.74827 1.00004 5.0002C0.568154 5.25214 0.568252 5.25231 0.568363 5.2525L0.569473 5.25439L0.572082 5.25882L0.58115 5.27407C0.588901 5.28703 0.600059 5.30552 0.61458 5.32917C0.643617 5.37647 0.68612 5.44445 0.741727 5.53016C0.852902 5.70151 1.01668 5.94407 1.23019 6.23411C1.6566 6.81339 2.28451 7.5864 3.09128 8.3609C3.41585 8.67248 3.77172 8.98651 4.15726 9.28923L1.59961 12.6994L2.39961 13.2994L4.96749 9.87557C5.71345 10.3704 6.54772 10.8021 7.46145 11.0958L6.51562 14.8791L7.48577 15.1216L8.42958 11.3464C8.93279 11.4454 9.4567 11.5002 10 11.5002C10.5498 11.5002 11.0754 11.4526 11.5768 11.3658L12.5156 15.1213L13.4858 14.8788L12.5514 11.1413C13.5021 10.8665 14.3531 10.4539 15.1041 9.97367L17.5996 13.301L18.3996 12.701L15.9217 9.39706C16.3574 9.06 16.7514 8.70592 17.1036 8.35376C17.8822 7.57515 18.465 6.79788 18.8536 6.21505C19.0481 5.92322 19.1947 5.67897 19.2935 5.50608C19.343 5.41961 19.3805 5.35089 19.4061 5.30288C19.4189 5.27887 19.4287 5.26003 19.4356 5.24674L19.4436 5.23098L19.446 5.22631L19.4468 5.22478C19.4469 5.22456 19.4473 5.22381 19 5.0002C18.5528 4.7766 18.5529 4.77644 18.553 4.77631L18.5521 4.77812L18.5469 4.78809L18.5326 4.81559L18.5237 4.83229C18.5024 4.87217 18.4696 4.93236 18.4253 5.00995C18.3366 5.16519 18.202 5.38969 18.0215 5.66035C17.6601 6.20253 17.1179 6.92525 16.3965 7.64665C14.951 9.09215 12.8207 10.5002 10 10.5002C7.43627 10.5002 5.30477 9.09963 3.78381 7.63951C3.02807 6.914 2.43724 6.18702 2.03552 5.64129C1.83497 5.36884 1.68234 5.14264 1.58063 4.98587C1.52979 4.90752 1.49172 4.84659 1.46681 4.806C1.45435 4.78571 1.44518 4.77051 1.43935 4.76076L1.43312 4.75028L1.4318 4.74805Z"/>
</svg>
